<svg xmlns="http://www.w3.org/2000/svg" viewBox="0 0 64 64">
  <defs>
    <linearGradient id="g" x1="0%" y1="0%" x2="100%" y2="100%">
      <stop offset="0%" stop-color="#0ea5e9" />
      <stop offset="100%" stop-color="#6366f1" />
    </linearGradient>
  </defs>
  <rect width="64" height="64" rx="16" fill="url(#g)" />
  <path
    d="M22 48V16h12.2c7 0 11.1 3.5 11.1 9c0 3.6-2 6.3-5.6 7.8c4.2 1.1 6.6 4 6.6 8.2c0 6-4.6 10-12.3 10H22zm8.4-18.6h4c2.8 0 4.3-1.1 4.3-3.4c0-2.2-1.5-3.3-4.3-3.3h-4zm0 12.2h4.4c3.5 0 5.4-1.3 5.4-4c0-2.5-1.8-3.9-5.4-3.9h-4.4z"
    fill="#fff"
  />
</svg>
